<svg width="326" height="82" viewBox="0 0 326 82" fill="none" xmlns="http://www.w3.org/2000/svg">
<g clip-path="url(#clip0_8_2)">
<mask id="mask0_8_2" style="mask-type:luminance" maskUnits="userSpaceOnUse" x="0" y="0" width="326" height="82">
<path d="M325.49 0H0V81.4H325.49V0Z" fill="white"/>
</mask>
<g mask="url(#mask0_8_2)">
<path d="M119.131 38.7154C121.865 39.6715 123.747 40.8591 124.778 42.2782C125.809 43.6824 126.324 45.6243 126.324 48.1041C126.324 51.8834 125.376 54.6993 123.478 56.5516C121.581 58.4039 118.646 59.3301 114.672 59.3301H103.715C103.267 59.3301 103.043 59.0985 103.043 58.6355V57.291C103.043 56.9176 103.245 56.6412 103.648 56.462C104.499 56.0586 104.925 55.4686 104.925 54.6918V27.6463C104.925 27.2728 104.865 27.0189 104.746 26.8844C104.626 26.75 104.268 26.5408 103.67 26.257C103.372 26.1226 103.192 25.9732 103.133 25.8089C103.088 25.6445 103.065 25.2412 103.065 24.5989C103.065 24.0312 103.14 23.6503 103.289 23.4561C103.454 23.2619 103.73 23.1648 104.119 23.1648H116.398C119.355 23.1648 121.626 23.9192 123.21 25.4279C124.793 26.9367 125.585 28.8563 125.585 31.1866C125.585 33.1286 124.957 34.7568 123.702 36.0714C122.463 37.3859 120.939 38.2673 119.131 38.7154ZM113.261 25.6968V37.4606H114.448C115.195 37.4606 115.778 37.244 116.196 36.8108C116.629 36.3776 116.876 35.6606 116.935 34.6597C117.01 33.6439 117.048 32.3667 117.048 30.8281C117.048 28.677 116.838 27.2877 116.42 26.6603C116.017 26.018 115.36 25.6968 114.448 25.6968H113.261ZM113.261 40.015V56.7532C114.635 56.7532 115.554 56.5665 116.017 56.1931C116.495 55.8196 116.771 55.0802 116.846 53.9748C116.935 52.8693 116.98 51.0021 116.98 48.3729C116.98 47.8352 116.958 46.6177 116.913 44.7206C116.868 42.8085 116.779 41.6582 116.644 41.2699C116.51 40.8815 116.271 40.5752 115.927 40.3512C115.599 40.1271 115.106 40.015 114.448 40.015H113.261ZM134.749 22.3582C136.437 22.3582 137.281 22.9258 137.281 24.0611C137.281 24.9574 136.714 25.7192 135.578 26.3466C134.458 26.9591 133.181 27.2653 131.747 27.2653C129.894 27.2653 128.968 26.6454 128.968 25.4055C128.968 24.4196 129.618 23.6652 130.918 23.1424C132.217 22.6196 133.494 22.3582 134.749 22.3582ZM128.475 30.9401V29.4612C128.475 28.9683 128.774 28.7218 129.371 28.7218H136.519C137.027 28.7218 137.281 28.9683 137.281 29.4612V55.2296C137.281 55.5881 137.304 55.8196 137.348 55.9242C137.393 56.0287 137.528 56.1258 137.752 56.2155C138.29 56.4246 138.558 56.8877 138.558 57.6047C138.558 58.4263 138.521 58.9193 138.446 59.0836C138.372 59.2479 138.133 59.3301 137.729 59.3301H129.035C128.826 59.3002 128.692 59.2106 128.632 59.0612C128.572 58.8969 128.542 58.4786 128.542 57.8064C128.542 56.9997 128.737 56.5292 129.125 56.3947C129.603 56.2304 129.842 55.9316 129.842 55.4984V33.1584C129.842 32.292 129.521 31.7692 128.879 31.5899C128.61 31.5152 128.475 31.2986 128.475 30.9401ZM140.396 25.0022V23.8818C140.396 23.4038 140.71 23.1648 141.337 23.1648H148.261C148.634 23.1648 148.881 23.1947 149 23.2544C149.12 23.3142 149.179 23.5681 149.179 24.0163V55.3192C149.179 56.0063 149.404 56.4321 149.852 56.5964C150.165 56.7159 150.322 56.9699 150.322 57.3582V58.6355C150.322 59.0985 149.986 59.3301 149.314 59.3301H141.09C140.627 59.3301 140.396 59.0985 140.396 58.6355V57.3582C140.396 56.8354 140.627 56.447 141.09 56.1931C141.389 56.0437 141.576 55.9092 141.651 55.7897C141.725 55.6553 141.763 55.4088 141.763 55.0503V27.2877C141.763 26.7649 141.561 26.4139 141.158 26.2346C140.65 25.9807 140.396 25.5699 140.396 25.0022ZM152.361 25.0022V23.8818C152.361 23.4038 152.675 23.1648 153.302 23.1648H160.226C160.6 23.1648 160.846 23.1947 160.966 23.2544C161.085 23.3142 161.145 23.5681 161.145 24.0163V55.3192C161.145 56.0063 161.369 56.4321 161.817 56.5964C162.131 56.7159 162.288 56.9699 162.288 57.3582V58.6355C162.288 59.0985 161.952 59.3301 161.279 59.3301H153.056C152.593 59.3301 152.361 59.0985 152.361 58.6355V57.3582C152.361 56.8354 152.593 56.447 153.056 56.1931C153.355 56.0437 153.541 55.9092 153.616 55.7897C153.691 55.6553 153.728 55.4088 153.728 55.0503V27.2877C153.728 26.7649 153.526 26.4139 153.123 26.2346C152.615 25.9807 152.361 25.5699 152.361 25.0022ZM170.646 22.3582C172.334 22.3582 173.178 22.9258 173.178 24.0611C173.178 24.9574 172.61 25.7192 171.475 26.3466C170.354 26.9591 169.077 27.2653 167.643 27.2653C165.791 27.2653 164.865 26.6454 164.865 25.4055C164.865 24.4196 165.514 23.6652 166.814 23.1424C168.114 22.6196 169.391 22.3582 170.646 22.3582ZM164.372 30.9401V29.4612C164.372 28.9683 164.67 28.7218 165.268 28.7218H172.416C172.924 28.7218 173.178 28.9683 173.178 29.4612V55.2296C173.178 55.5881 173.2 55.8196 173.245 55.9242C173.29 56.0287 173.424 56.1258 173.648 56.2155C174.186 56.4246 174.455 56.8877 174.455 57.6047C174.455 58.4263 174.417 58.9193 174.343 59.0836C174.268 59.2479 174.029 59.3301 173.626 59.3301H164.932C164.723 59.3002 164.588 59.2106 164.528 59.0612C164.469 58.8969 164.439 58.4786 164.439 57.8064C164.439 56.9997 164.633 56.5292 165.021 56.3947C165.499 56.2304 165.738 55.9316 165.738 55.4984V33.1584C165.738 32.292 165.417 31.7692 164.775 31.5899C164.506 31.5152 164.372 31.2986 164.372 30.9401ZM184.717 43.5778V52.7424C184.717 53.9523 184.949 54.9009 185.412 55.5881C185.89 56.2752 186.495 56.6188 187.227 56.6188C188.362 56.6188 189.266 56.1408 189.938 55.1847C190.625 54.2138 190.991 52.8917 191.036 51.2187C191.051 50.3224 191.133 49.7846 191.283 49.6053C191.447 49.4261 191.992 49.3365 192.918 49.3365C193.725 49.3365 194.233 49.4186 194.442 49.5829C194.666 49.7473 194.778 50.1581 194.778 50.8153C194.778 53.1158 194.031 55.1623 192.537 56.9549C191.044 58.7475 189.064 59.6438 186.6 59.6438C183.776 59.6438 181.379 58.3666 179.407 55.8121C177.435 53.2428 176.449 49.3813 176.449 44.2276C176.449 39.0739 177.36 35.1527 179.183 32.4638C181.005 29.76 183.395 28.4081 186.353 28.4081C188.893 28.4081 190.932 29.5434 192.47 31.814C194.009 34.0846 194.778 37.3112 194.778 41.4939V43.5778H184.717ZM187.742 40.7769V33.3601C187.742 31.9559 187.242 31.2538 186.241 31.2538C185.225 31.2538 184.717 31.9559 184.717 33.3601V40.7769H187.742ZM208.76 23.1648H219.449C219.867 23.1648 220.136 23.2246 220.255 23.3441C220.39 23.4636 220.457 23.7997 220.457 24.3524C220.457 25.0694 220.397 25.525 220.278 25.7192C220.173 25.8985 219.927 26.0479 219.538 26.1674C219.09 26.3018 218.814 26.4587 218.709 26.6379C218.619 26.8172 218.575 27.2056 218.575 27.8031V52.4735C218.575 55.9092 217.648 58.8446 215.796 61.2795C213.944 63.7294 211.083 64.9543 207.214 64.9543C206.482 64.9543 206.042 64.8945 205.892 64.775C205.743 64.6705 205.668 64.4315 205.668 64.058V63.2065C205.668 62.863 205.705 62.6389 205.78 62.5343C205.84 62.4297 206.049 62.3625 206.408 62.3326C208.947 62.1086 210.217 60.077 210.217 56.2379V28.8338C210.217 27.7434 210.112 27.0487 209.903 26.75C209.709 26.4363 209.343 26.1973 208.805 26.0329C208.267 25.8686 207.998 25.5101 207.998 24.9574C207.998 24.0312 208.028 23.5009 208.088 23.3665C208.163 23.232 208.387 23.1648 208.76 23.1648ZM233.61 37.6175V33.2929C233.61 32.0978 233.124 31.5003 232.153 31.5003C230.824 31.5003 230.159 32.4041 230.159 34.2116C230.159 35.2274 230.04 35.9519 229.801 36.3851C229.577 36.8183 229.054 37.1917 228.232 37.5054C227.426 37.8042 226.559 37.9536 225.633 37.9536C223.736 37.9536 222.787 36.9378 222.787 34.9062C222.787 32.9941 223.609 31.4331 225.252 30.2231C226.91 29.0131 229.069 28.4081 231.728 28.4081C233.475 28.4081 235.044 28.6471 236.433 29.1251C237.837 29.6032 238.958 30.4098 239.794 31.5451C240.631 32.6804 241.049 33.9278 241.049 35.2871V55.7449C241.079 55.8495 241.303 56.0736 241.721 56.4171C242.02 56.6412 242.169 56.9699 242.169 57.4031C242.169 58.0006 242.087 58.4263 241.923 58.6803C241.759 58.9193 241.355 59.1434 240.713 59.3525C240.086 59.5616 239.294 59.6662 238.338 59.6662C237.173 59.6662 236.202 59.4571 235.425 59.0388C234.648 58.6056 234.043 57.769 233.61 56.5292C232.31 57.8736 231.257 58.7326 230.45 59.106C229.644 59.4795 228.815 59.6662 227.963 59.6662C226.066 59.6662 224.595 58.9267 223.549 57.4479C222.518 55.9541 222.003 53.5191 222.003 50.1431C222.003 46.7671 222.488 44.4293 223.459 43.1297C224.43 41.8151 226.328 40.6051 229.151 39.4997C230.943 38.8125 232.43 38.1851 233.61 37.6175ZM233.61 40.5304C231.922 41.2773 230.914 42.1213 230.585 43.0624C230.256 43.9886 230.092 46.0874 230.092 49.3589C230.092 51.7639 230.226 53.2876 230.495 53.9299C230.764 54.5573 231.227 54.871 231.885 54.871C233.035 54.871 233.61 53.915 233.61 52.0029V40.5304ZM252.656 31.7692C254.434 29.5285 256.465 28.4081 258.751 28.4081C260.319 28.4081 261.514 28.916 262.336 29.9318C263.158 30.9327 263.568 32.1949 263.568 33.7186V55.1847C263.568 55.6628 263.755 56.0287 264.129 56.2827C264.472 56.4918 264.644 57.0296 264.644 57.896C264.644 58.5832 264.584 58.994 264.465 59.1284C264.36 59.2629 264.129 59.3301 263.77 59.3301H257.474C256.577 58.5682 256.129 57.5748 256.129 56.3499V35.0406C256.129 33.8755 255.651 33.2929 254.695 33.2929C254.068 33.2929 253.388 33.6215 252.656 34.2788V55.1847C252.656 55.7225 252.917 56.1408 253.44 56.4395C253.754 56.6188 253.911 56.9474 253.911 57.4255V58.5682C253.911 59.0761 253.545 59.3301 252.813 59.3301H244.858C244.47 59.3301 244.223 59.2778 244.119 59.1732C244.014 59.0537 243.962 58.7699 243.962 58.3218V57.4927C243.962 57.0595 244.096 56.7532 244.365 56.574C244.724 56.32 244.955 56.081 245.06 55.857C245.165 55.6329 245.217 55.1399 245.217 54.3781V32.4638C245.217 31.941 244.963 31.5601 244.455 31.321C244.171 31.1866 244.029 30.9476 244.029 30.604V29.4164C244.029 28.9533 244.238 28.7218 244.657 28.7218H251.961C252.275 28.7218 252.469 28.7666 252.544 28.8563C252.619 28.9459 252.656 29.1326 252.656 29.4164V31.7692ZM274.929 43.5778V52.7424C274.929 53.9523 275.16 54.9009 275.623 55.5881C276.101 56.2752 276.706 56.6188 277.438 56.6188C278.574 56.6188 279.478 56.1408 280.15 55.1847C280.837 54.2138 281.203 52.8917 281.248 51.2187C281.263 50.3224 281.345 49.7846 281.494 49.6053C281.658 49.4261 282.204 49.3365 283.13 49.3365C283.937 49.3365 284.444 49.4186 284.654 49.5829C284.878 49.7473 284.99 50.1581 284.99 50.8153C284.99 53.1158 284.243 55.1623 282.749 56.9549C281.255 58.7475 279.276 59.6438 276.811 59.6438C273.988 59.6438 271.59 58.3666 269.618 55.8121C267.646 53.2428 266.661 49.3813 266.661 44.2276C266.661 39.0739 267.572 35.1527 269.394 32.4638C271.217 29.76 273.607 28.4081 276.565 28.4081C279.104 28.4081 281.143 29.5434 282.682 31.814C284.22 34.0846 284.99 37.3112 284.99 41.4939V43.5778H274.929ZM277.954 40.7769V33.3601C277.954 31.9559 277.453 31.2538 276.453 31.2538C275.437 31.2538 274.929 31.9559 274.929 33.3601V40.7769H277.954ZM288.172 25.9433C288.172 25.047 288.485 24.2628 289.113 23.5906C289.755 22.9183 290.591 22.5822 291.622 22.5822C292.877 22.5822 293.9 23.1424 294.692 24.2628C295.499 25.3682 295.902 26.6081 295.902 27.9824C295.902 29.999 295.178 32.0381 293.729 34.0995C292.294 36.1461 291.309 37.1693 290.771 37.1693C290.621 37.1693 290.315 36.9975 289.852 36.654L289.628 36.4971C289.24 36.2432 289.045 36.0415 289.045 35.8921C289.045 35.7876 289.247 35.4514 289.65 34.8838C290.771 33.2854 291.331 32.0306 291.331 31.1194C291.331 30.4173 290.972 29.8198 290.255 29.3268C289.538 28.8338 289.008 28.3035 288.664 27.7359C288.336 27.1682 288.172 26.5707 288.172 25.9433ZM309.458 29.2372L310.691 35.444C310.721 35.6382 310.736 35.81 310.736 35.9593C310.736 36.3776 310.332 36.5867 309.526 36.5867C308.988 36.5867 308.592 36.5195 308.338 36.3851C308.099 36.2506 307.823 35.8921 307.509 35.3095C307.15 34.6224 306.605 33.8082 305.873 32.8671C305.141 31.926 304.484 31.4555 303.901 31.4555C303.677 31.4555 303.476 31.5601 303.296 31.7692C303.132 31.9783 303.05 32.2248 303.05 32.5086C303.05 33.2705 304.14 35.429 306.321 38.9843C308.204 42.0765 309.481 44.504 310.153 46.2667C310.825 48.0294 311.161 50.0161 311.161 52.227C311.161 54.5723 310.653 56.4022 309.638 57.7168C308.622 59.0164 307.427 59.6662 306.052 59.6662C305.186 59.6662 304.275 59.3525 303.319 58.7251C302.796 58.3815 302.445 58.2097 302.266 58.2097C302.057 58.2097 301.937 58.3815 301.907 58.7251C301.847 59.1284 301.758 59.3824 301.638 59.4869C301.519 59.6064 301.13 59.6662 300.473 59.6662C299.965 59.6662 299.637 59.5915 299.487 59.4421C299.338 59.2927 299.233 59.0313 299.173 58.6579L298.053 52.4062C298.008 52.1075 297.986 51.9208 297.986 51.8461C297.986 51.4278 298.486 51.2187 299.487 51.2187C300.01 51.2187 300.369 51.2859 300.563 51.4203C300.772 51.5548 301.033 51.9432 301.347 52.5855C302.512 55.0204 303.618 56.2379 304.663 56.2379C305.335 56.2379 305.672 55.8346 305.672 55.0279C305.672 54.3109 305.418 53.422 304.91 52.3614C304.417 51.3008 303.446 49.5605 301.997 47.1405C300.473 44.5712 299.368 42.4201 298.681 40.6873C298.008 38.9544 297.672 37.2141 297.672 35.4664C297.672 33.0912 298.18 31.321 299.196 30.1559C300.212 28.9907 301.444 28.4081 302.893 28.4081C303.655 28.4081 304.521 28.6695 305.492 29.1924C305.985 29.4612 306.321 29.5957 306.501 29.5957C306.74 29.5957 306.882 29.4388 306.926 29.1251C306.986 28.7965 307.106 28.5948 307.285 28.5201C307.464 28.4455 307.845 28.4081 308.428 28.4081C308.801 28.4081 309.04 28.4529 309.145 28.5425C309.264 28.6172 309.369 28.8488 309.458 29.2372Z" fill="#352F2F"/>
<path d="M46.3901 2.57C46.3901 3.99 44.3901 5.14 41.8901 5.14C39.3901 5.14 37.3901 4 37.3901 2.57C37.3901 1.14 39.4001 0 41.8901 0C44.3801 0 46.3901 1.15 46.3901 2.57Z" fill="#352F2F"/>
<path d="M83.9301 28.74V54.74C83.9301 54.74 66.8901 47 42.1101 47C17.3301 47 1.84009 54.75 1.84009 54.75V28.6C1.84009 19.71 7.64009 10.86 16.1401 8.24997L36.3901 1.99997C40.2053 0.849946 44.2749 0.849946 48.0901 1.99997L69.4601 8.33997C78.0001 10.89 83.9301 19.78 83.9301 28.74Z" fill="#FBF8E9"/>
<path d="M16.1401 8.25005L17.6001 7.80005C13.1101 12 10.2801 19.42 10.2801 26.85V51.5801C7.39002 52.4199 4.56845 53.4797 1.84009 54.75V28.6C1.84009 19.71 7.64009 10.86 16.1401 8.25005Z" fill="#352F2F"/>
<path d="M83.9299 28.74V54.74C81.183 53.5622 78.364 52.5602 75.4899 51.74V27C75.4899 19.55 72.6499 12.14 68.1699 8L69.4599 8.38C77.9999 10.89 83.9299 19.78 83.9299 28.74Z" fill="#352F2F"/>
<path d="M77.07 81.18C76.2702 81.3881 75.4367 81.4333 74.619 81.3131C73.8013 81.1928 73.0161 80.9095 72.31 80.48C67.68 77.69 54.74 70.57 43.64 70.57C32.36 70.57 18.17 77.93 13.38 80.57C11.9863 81.3485 10.3472 81.5632 8.80001 81.17C6.10599 80.4764 3.74651 78.8472 2.14347 76.5737C0.540441 74.3001 -0.201609 71.5305 0.0500138 68.76L1.85001 58.76C1.85001 58.76 17.34 51 42.12 51C66.9 51 83.93 58.74 83.93 58.74L85.73 68.74C85.9905 71.5003 85.2632 74.2636 83.6774 76.5379C82.0916 78.8122 79.7502 80.4501 77.07 81.16" fill="#352F2F"/>
<path d="M4 51.0699C4 51.0699 4.3 50.9199 4.91 50.6499" stroke="#352F2F" stroke-miterlimit="10" stroke-linecap="round"/>
<path d="M6.73999 49.9099C7.51999 49.6299 8.45999 49.2999 9.55999 48.9099" stroke="#352F2F" stroke-miterlimit="10" stroke-linecap="round" stroke-dasharray="1.99 1.99"/>
<path d="M10.52 48.6601C16.78 46.8101 27.63 44.5701 43.52 44.5701C64.42 44.5701 76.04 48.4701 80.22 50.2301" stroke="#352F2F" stroke-miterlimit="10" stroke-linecap="round" stroke-dasharray="1.99 1.99 1.99 1.99"/>
<path d="M81.1001 50.6299C81.7001 50.9099 81.9901 51.0699 81.9901 51.0699" stroke="#352F2F" stroke-miterlimit="10" stroke-linecap="round"/>
</g>
</g>
<defs>
<clipPath id="clip0_8_2">
<rect width="325.25" height="81.4" fill="white"/>
</clipPath>
</defs>
</svg>
