<svg id="Layer_1" data-name="Layer 1" xmlns="http://www.w3.org/2000/svg" xmlns:xlink="http://www.w3.org/1999/xlink" viewBox="0 0 325.25 81.4"><defs><style>.cls-1,.cls-11,.cls-12,.cls-13{fill:none;}.cls-2{clip-path:url(#clip-path);}.cls-3{font-size:45.89px;font-family:BernardMT-Condensed, Bernard MT Condensed;}.cls-10,.cls-3{fill:#f4efd3;}.cls-4{letter-spacing:0.03em;}.cls-5{letter-spacing:0.02em;}.cls-6{letter-spacing:0.02em;}.cls-7{letter-spacing:0.02em;}.cls-8{letter-spacing:0em;}.cls-9{fill:#91b8b3;}.cls-11,.cls-12,.cls-13{stroke:#352f2f;stroke-linecap:round;stroke-miterlimit:10;}.cls-12{stroke-dasharray:1.99 1.99;}.cls-13{stroke-dasharray:1.99 1.99 1.99 1.99;}</style><clipPath id="clip-path" transform="translate(0 0)"><rect class="cls-1" width="325.49" height="81.4"/></clipPath></defs><g class="cls-2"><text class="cls-3" transform="translate(102.55 61.22)"><tspan class="cls-4">B</tspan><tspan class="cls-5" x="26.02" y="0">illi</tspan><tspan class="cls-6" x="78.2" y="0">e </tspan><tspan class="cls-7" x="112.27" y="0">Ja</tspan><tspan class="cls-4" x="150.32" y="0">ne</tspan><tspan class="cls-8" x="195.64" y="0">’</tspan><tspan x="207.4" y="0">s</tspan></text><path class="cls-9" d="M47.39,2.57c0,1.42-2,2.57-4.5,2.57S38.39,4,38.39,2.57,40.4,0,42.89,0s4.5,1.15,4.5,2.57" transform="translate(0 0)"/><path class="cls-10" d="M83.93,28.74v26S66.89,47,42.11,47,1.84,54.75,1.84,54.75V28.6c0-8.89,5.8-17.74,14.3-20.35L36.39,2A20.27,20.27,0,0,1,48.09,2L69.46,8.34C78,10.89,83.93,19.78,83.93,28.74" transform="translate(0 0)"/><path class="cls-9" d="M16.14,8.25,17.6,7.8C13.11,12,10.28,19.42,10.28,26.85V51.58a59,59,0,0,0-8.44,3.17V28.6c0-8.89,5.8-17.74,14.3-20.35" transform="translate(0 0)"/><path class="cls-9" d="M83.93,28.74v26a70.54,70.54,0,0,0-8.44-3V27c0-7.45-2.84-14.86-7.32-19l1.29.38C78,10.89,83.93,19.78,83.93,28.74" transform="translate(0 0)"/><path class="cls-9" d="M77.07,81.18a6.17,6.17,0,0,1-4.76-.7c-4.63-2.79-17.57-9.91-28.67-9.91-11.28,0-25.47,7.36-30.26,10a6.24,6.24,0,0,1-4.58.6A11.72,11.72,0,0,1,.05,68.76l1.8-10S17.34,51,42.12,51s41.81,7.74,41.81,7.74l1.8,10a11.71,11.71,0,0,1-8.66,12.42" transform="translate(0 0)"/><path class="cls-11" d="M4,51.07s.3-.15.91-.42" transform="translate(0 0)"/><path class="cls-12" d="M6.74,49.91c.78-.28,1.72-.61,2.82-1" transform="translate(0 0)"/><path class="cls-13" d="M10.52,48.66c6.26-1.85,17.11-4.09,33-4.09,20.9,0,32.52,3.9,36.7,5.66" transform="translate(0 0)"/><path class="cls-11" d="M81.1,50.63c.6.28.89.44.89.44" transform="translate(0 0)"/></g></svg>