<svg width="102" height="102" viewBox="0 0 102 102" fill="none" xmlns="http://www.w3.org/2000/svg">
<path d="M51 1C23.406 1 1 23.402 1 51C1 78.594 23.402 101 51 101C65.156 101 77.945 95.1016 87.047 85.633C87.129 85.5627 87.2033 85.4846 87.2697 85.3986C87.2736 85.3947 87.2814 85.3869 87.2853 85.3791C95.7814 76.4143 100.996 64.3131 100.996 51.0001C100.996 23.4061 78.5943 1.0001 50.9963 1.0001L51 1ZM51 4.125C76.906 4.125 97.875 25.094 97.875 51C97.875 62.352 93.8516 72.754 87.148 80.859C84.5933 66.605 73.839 55.246 59.929 51.789C66.8196 48.4609 71.585 41.402 71.585 33.25C71.585 21.902 62.3467 12.66 50.999 12.66C39.6513 12.66 30.421 21.9022 30.421 33.25C30.421 41.4023 35.1827 48.461 42.073 51.789C28.163 55.2499 17.417 66.613 14.866 80.871C8.159 72.7616 4.128 62.355 4.128 51C4.128 25.094 25.097 4.125 51.003 4.125H51ZM51 15.785C60.6602 15.785 68.461 23.5897 68.461 33.25C68.461 42.9103 60.6602 50.699 51 50.699C41.3398 50.699 33.551 42.9099 33.551 33.25C33.551 23.5901 41.3401 15.785 51 15.785ZM51 53.824C68.441 53.824 82.66 66.933 84.418 83.879C75.918 92.5196 64.09 97.875 51 97.875C37.914 97.875 26.094 92.5234 17.594 83.891C19.3479 66.938 33.555 53.824 51 53.824Z" fill="#352F2F" stroke="#352F2F"/>
</svg>
