<?xml version="1.0" encoding="utf-8"?>
<!-- Generator: Adobe Illustrator 25.0.0, SVG Export Plug-In . SVG Version: 6.00 Build 0)  -->
<svg version="1.1" id="Layer_1" xmlns="http://www.w3.org/2000/svg" xmlns:xlink="http://www.w3.org/1999/xlink" x="0px" y="0px"
	 viewBox="0 0 287.15 286.46" style="enable-background:new 0 0 287.15 286.46;" xml:space="preserve">
<style type="text/css">
	.st0{clip-path:url(#SVGID_2_);fill-rule:evenodd;clip-rule:evenodd;fill:#FFFFFF;}
</style>
<g>
	<defs>
		<rect id="SVGID_1_" width="287.15" height="286.46"/>
	</defs>
	<clipPath id="SVGID_2_">
		<use xlink:href="#SVGID_1_"  style="overflow:visible;"/>
	</clipPath>
	<path class="st0" d="M77.44,0h132.26c42.49,0,77.44,34.95,77.44,77.44v131.58c0,42.49-34.95,77.44-77.44,77.44H77.44
		C34.95,286.46,0,251.51,0,209.02V77.44C0,34.95,34.95,0,77.44,0 M220.67,50.03L220.67,50.03c8.91,0,16.45,7.54,16.45,16.45
		c0,8.91-7.54,16.45-16.45,16.45c-9.59,0-16.45-7.54-16.45-16.45C204.22,57.57,211.08,50.03,220.67,50.03 M143.23,65.1h0.68
		c42.49,0,78.13,35.64,78.13,78.13c0,43.17-35.64,78.12-78.13,78.12h-0.68c-42.49,0-77.44-34.95-77.44-78.12
		C65.79,100.74,100.74,65.1,143.23,65.1 M143.23,91.83h0.68c28.1,0,51.4,23.3,51.4,51.4c0,28.78-23.3,52.08-51.4,52.08h-0.68
		c-28.1,0-51.4-23.3-51.4-52.08C91.83,115.13,115.13,91.83,143.23,91.83 M78.13,24.67h130.89c29.47,0,53.45,23.99,53.45,53.45
		v130.21c0,29.47-23.99,53.45-53.45,53.45H78.13c-29.47,0-53.45-23.99-53.45-53.45V78.12C24.67,48.66,48.66,24.67,78.13,24.67"/>
</g>
</svg>
