<?xml version="1.0" encoding="utf-8"?>
<!-- Generator: Adobe Illustrator 25.0.0, SVG Export Plug-In . SVG Version: 6.00 Build 0)  -->
<svg version="1.1" id="Layer_1" xmlns="http://www.w3.org/2000/svg" xmlns:xlink="http://www.w3.org/1999/xlink" x="0px" y="0px"
	 viewBox="0 0 255.06 256.31" style="enable-background:new 0 0 255.06 256.31;" xml:space="preserve">
<style type="text/css">
	.st0{clip-path:url(#SVGID_2_);fill-rule:evenodd;clip-rule:evenodd;fill:#FFFFFF;}
</style>
<g>
	<defs>
		<rect id="SVGID_1_" width="255.06" height="256.31"/>
	</defs>
	<clipPath id="SVGID_2_">
		<use xlink:href="#SVGID_1_"  style="overflow:visible;"/>
	</clipPath>
	<path class="st0" d="M5,86.27h50.64v170.04H5V86.27z M30.01,0c16.88,0,30.63,13.75,30.63,30.63S46.88,61.26,30.01,61.26
		C13.13,61.26,0,47.51,0,30.63S13.13,0,30.01,0 M85.64,86.27h50.01v23.76c10.63-15.63,28.13-25.63,48.14-25.63h13.75
		c31.88,0,57.51,26.26,57.51,57.51v25.63v30.63v58.14h-50.01v-0.63v-15v-76.27c-0.62-19.38-13.75-34.38-33.13-34.38
		s-35.63,15-36.26,34.38v66.26v25.63H85.64V86.27z"/>
</g>
</svg>
