<?xml version="1.0" encoding="utf-8"?>
<!-- Generator: Adobe Illustrator 25.0.0, SVG Export Plug-In . SVG Version: 6.00 Build 0)  -->
<svg version="1.1" id="Layer_1" xmlns="http://www.w3.org/2000/svg" xmlns:xlink="http://www.w3.org/1999/xlink" x="0px" y="0px"
	 viewBox="0 0 85.78 81.4" style="enable-background:new 0 0 85.78 81.4;" xml:space="preserve">
<style type="text/css">
	.st0{clip-path:url(#SVGID_2_);fill:#91B8B3;}
	.st1{clip-path:url(#SVGID_2_);fill:#F4EFD3;}
	.st2{clip-path:url(#SVGID_2_);fill:none;stroke:#352F2F;stroke-linecap:round;stroke-miterlimit:10;}
	.st3{clip-path:url(#SVGID_2_);fill:none;stroke:#352F2F;stroke-linecap:round;stroke-miterlimit:10;stroke-dasharray:1.99,1.99;}
	
		.st4{clip-path:url(#SVGID_2_);fill:none;stroke:#352F2F;stroke-linecap:round;stroke-miterlimit:10;stroke-dasharray:1.99,1.99,1.99,1.99;}
</style>
<g>
	<defs>
		<rect id="SVGID_1_" y="0" width="85.78" height="81.4"/>
	</defs>
	<clipPath id="SVGID_2_">
		<use xlink:href="#SVGID_1_"  style="overflow:visible;"/>
	</clipPath>
	<path class="st0" d="M47.39,2.57c0,1.42-2.02,2.57-4.5,2.57c-2.49,0-4.5-1.15-4.5-2.57c0-1.42,2.01-2.57,4.5-2.57
		C45.37,0,47.39,1.15,47.39,2.57"/>
	<path class="st1" d="M83.93,28.74v26.01c0,0-17.04-7.74-41.82-7.74c-24.77,0-40.27,7.74-40.27,7.74V28.6
		c0-8.89,5.8-17.74,14.3-20.35l20.25-6.21c3.81-1.17,7.88-1.18,11.7-0.05l21.37,6.35C78.04,10.89,83.93,19.78,83.93,28.74"/>
	<path class="st0" d="M16.14,8.25L17.6,7.8c-4.49,4.21-7.32,11.62-7.32,19.05v24.73c-5.46,1.67-8.44,3.17-8.44,3.17V28.6
		C1.84,19.71,7.64,10.86,16.14,8.25"/>
	<path class="st0" d="M83.93,28.74v26.01c0,0-3.05-1.39-8.44-2.98V27c0-7.45-2.84-14.86-7.32-19.04l1.29,0.38
		C78.04,10.89,83.93,19.78,83.93,28.74"/>
	<path class="st0" d="M77.07,81.18c-1.61,0.43-3.33,0.15-4.76-0.71c-4.63-2.78-17.57-9.9-28.67-9.9c-11.28,0-25.47,7.36-30.26,10.04
		c-1.39,0.78-3.03,0.99-4.57,0.6c-5.44-1.39-9.3-6.57-8.75-12.44l1.79-10.01c0,0,15.5-7.74,40.27-7.74s41.81,7.74,41.81,7.74
		l1.79,10.01C86.28,74.6,82.46,79.76,77.07,81.18"/>
	<path class="st2" d="M3.99,51.07c0,0,0.3-0.15,0.9-0.42"/>
	<path class="st3" d="M6.74,49.91c0.77-0.29,1.71-0.61,2.82-0.96"/>
	<path class="st4" d="M10.52,48.66c6.26-1.85,17.12-4.09,32.97-4.09c20.9,0,32.51,3.9,36.69,5.65"/>
	<path class="st2" d="M81.1,50.63c0.6,0.28,0.89,0.44,0.89,0.44"/>
</g>
</svg>
