<svg width="32" height="32" viewBox="0 0 32 32" fill="none" xmlns="http://www.w3.org/2000/svg">
<path d="M31.6634 30.0488L23.1997 21.5848C25.121 19.2992 26.2837 16.355 26.2837 13.1424C26.2837 5.89575 20.3886 0 13.1419 0C5.89552 0.00142841 0 5.89684 0 13.1435C0 20.3901 5.89515 26.2858 13.1419 26.2858C16.3545 26.2858 19.2985 25.123 21.584 23.2017L30.0477 31.6657C30.2705 31.8886 30.5634 32 30.8562 32C31.149 32 31.4419 31.8886 31.6647 31.6657C32.1118 31.2186 32.1118 30.4972 31.6647 30.0501L31.6634 30.0488ZM2.28602 13.1438C2.28602 7.15849 7.1569 2.28706 13.1424 2.28706C19.1279 2.28706 23.9987 7.15813 23.9987 13.1438C23.9987 19.1295 19.1279 24.0006 13.1424 24.0006C7.1569 24.0006 2.28602 19.1295 2.28602 13.1438Z" fill="#352f2f"/>
</svg>
